<svg width="100px" height="100px" xmlns="http://www.w3.org/2000/svg" viewBox="0 0 1637.84 2274.7"><defs><style>.cls-1{fill:#2f2f2f;}.cls-2{opacity:0.9;}.cls-3,.cls-4{font-size:1296px;font-family:Hind-Bold, Hind;font-weight:700;}.cls-3{fill:#08fdd8;}.cls-4{fill:#fd1753;}</style></defs><g id="Layer_2" data-name="Layer 2"><g id="Layer_1-2" data-name="Layer 1"><path class="cls-1" d="M737.1,2.83c-170.26,19-334.7,95.86-462.63,216.42C139.44,346,44.94,524.89,10.64,717.57c-14.26,81.63-14.26,221.16.45,305.65,12.49,73.09,45,179.86,75.77,248.68,68.64,155.19,161.78,289.49,392.64,565.24C638.62,2027,720.63,2134.71,787,2239.6c28.08,44.12,34.31,45.56,55.26,10.44,49.91-84.46,154.22-221.64,319.55-420,153.32-184.14,208.14-254.86,270.53-346.94,154.22-229.7,224.62-473.65,201-701C1593.27,390.59,1319.16,78.31,956.82,11.86,897.12,1,792.38-3.32,737.1,2.83Z"/><g class="cls-2"><text class="cls-3" transform="translate(366.75 1406.3)">G</text></g><text class="cls-4" transform="translate(306.75 1366.3)">G</text></g></g></svg>