<?xml version="1.0" encoding="utf-8"?>
<!-- Generator: Adobe Illustrator 25.0.1, SVG Export Plug-In . SVG Version: 6.00 Build 0)  -->
<svg width="80" height="80" version="1.1" id="Layer_1" xmlns="http://www.w3.org/2000/svg" xmlns:xlink="http://www.w3.org/1999/xlink" x="0px" y="0px"
	 viewBox="0 0 1000 1000" style="enable-background:new 0 0 1000 1000;" xml:space="preserve">
<style type="text/css">
	.st0{fill:#000000;}
	.st1{opacity:0.9;}
	.st2{fill:none;}
	.st3{fill:#FD1753;}
	.st4{font-family:'Hind-Bold';}
	.st5{font-size:500px;}
	.st6{fill:#08FDD8;}
</style>
<g>
	<g transform="translate(0.000000,511.000000) scale(0.100000,-0.100000)">
		<path class="st0" d="M4684.6,4997.8c-781.1-81.8-1535.5-413-2122.4-932.4c-619.5-545.9-1053-1316.8-1210.4-2146.9
			c-65.4-351.7-65.4-952.8,2.1-1316.8c57.3-314.9,206.5-774.9,347.6-1071.4c314.9-668.6,742.2-1247.2,1801.3-2435.2
			c730-817.9,1106.2-1282,1410.8-1733.9c128.8-190.1,157.4-196.3,253.5-45c229,363.9,707.5,954.9,1466,1809.5
			c703.4,793.3,954.9,1098,1241.1,1494.7C8581.7-390,8904.7,661,8796.4,1640.4c-184,1686.8-1441.5,3032.2-3103.8,3318.5
			C5418.7,5005.9,4938.2,5024.3,4684.6,4997.8z"/>
	</g>
</g>
<g>
	<g class="st1">
		<rect x="120.4" y="94.3" class="st2" width="855.1" height="715.6"/>
		<text transform="matrix(1 0 0 1 371.4865 628.8789)" class="st3 st4 st5">G</text>
	</g>
	<g>
		<rect x="66.4" y="64.3" class="st2" width="855.1" height="715.6"/>
		<text transform="matrix(1 0 0 1 317.4865 598.8789)" class="st6 st4 st5">G</text>
	</g>
</g>
</svg>
